<svg width="12" height="12" viewBox="0 0 12 12" fill="none" xmlns="http://www.w3.org/2000/svg">
<path d="M2.44527 7.9768C3.62886 9.39163 5.05364 10.5056 6.67983 11.2938C7.29898 11.5872 8.12699 11.9354 9.04949 11.995C9.10668 11.9975 9.16139 12 9.21858 12C9.83773 12 10.335 11.7862 10.7403 11.346C10.7428 11.3436 10.7478 11.3386 10.7503 11.3336C10.8945 11.1596 11.0586 11.0029 11.2302 10.8363C11.347 10.7244 11.4664 10.6075 11.5808 10.4882C12.1104 9.93618 12.1104 9.23498 11.5758 8.70038L10.0814 7.20597C9.82778 6.9424 9.52442 6.80315 9.20615 6.80315C8.88787 6.80315 8.58203 6.9424 8.32094 7.20349L7.43076 8.09366C7.34871 8.04642 7.26416 8.00415 7.1846 7.96436C7.08513 7.91463 6.99313 7.86739 6.91108 7.81517C6.10047 7.30046 5.36446 6.6291 4.66077 5.76627C4.30519 5.31621 4.06649 4.93826 3.89989 4.55284C4.13362 4.34149 4.35244 4.12019 4.56379 3.90386C4.63839 3.82678 4.71547 3.74969 4.79255 3.67261C5.0611 3.40407 5.20532 3.09325 5.20532 2.77746C5.20532 2.46167 5.06359 2.15085 4.79255 1.88231L4.05157 1.14132C3.96454 1.05429 3.88248 0.969751 3.79794 0.882722C3.63383 0.713638 3.46226 0.539581 3.29317 0.38293C3.03706 0.13179 2.73619 3.8147e-06 2.41792 3.8147e-06C2.10213 3.8147e-06 1.79877 0.13179 1.53271 0.385416L0.602748 1.31538C0.26458 1.65355 0.0731168 2.06382 0.0333323 2.53875C-0.0139118 3.13303 0.0954956 3.76461 0.37896 4.52798C0.814103 5.70908 1.47055 6.80564 2.44527 7.9768ZM0.640046 2.59097C0.669884 2.26026 0.796697 1.98426 1.0354 1.74555L1.96039 0.820559C2.10461 0.681313 2.26375 0.609204 2.41792 0.609204C2.56959 0.609204 2.72376 0.681313 2.86549 0.825532C3.03209 0.979697 3.18874 1.14132 3.35782 1.31289C3.44237 1.39992 3.5294 1.48695 3.61642 1.57646L4.35741 2.31745C4.51158 2.47162 4.59114 2.62827 4.59114 2.78243C4.59114 2.9366 4.51158 3.09325 4.35741 3.24741C4.28033 3.3245 4.20325 3.40407 4.12616 3.48115C3.89492 3.71488 3.67859 3.93618 3.43988 4.14754C3.43491 4.15251 3.43242 4.155 3.42745 4.15997C3.22107 4.36635 3.25339 4.56279 3.30312 4.71198C3.30561 4.71944 3.30809 4.72441 3.31058 4.73187C3.50204 5.19188 3.7681 5.62951 4.18335 6.15168C4.92931 7.0717 5.71506 7.78533 6.58037 8.33486C6.68729 8.40448 6.80167 8.45918 6.90859 8.51389C7.00805 8.56362 7.10005 8.61086 7.18211 8.66308C7.19206 8.66805 7.19951 8.67302 7.20946 8.678C7.29152 8.72027 7.37109 8.74016 7.45065 8.74016C7.64958 8.74016 7.77888 8.61335 7.82115 8.57108L8.75111 7.64111C8.89533 7.4969 9.05198 7.41981 9.20615 7.41981C9.39512 7.41981 9.54929 7.53668 9.64626 7.64111L11.1456 9.13801C11.444 9.43639 11.4415 9.75964 11.1382 10.0754C11.0337 10.1873 10.9243 10.2942 10.8075 10.4061C10.6334 10.5752 10.4519 10.7493 10.2878 10.9457C10.0018 11.254 9.66118 11.3983 9.22106 11.3983C9.17879 11.3983 9.13404 11.3958 9.09177 11.3933C8.27618 11.3411 7.51779 11.0228 6.94838 10.7518C5.40175 10.0033 4.04411 8.94157 2.91771 7.59387C1.99023 6.47742 1.36611 5.43805 0.953349 4.32408C0.697236 3.64029 0.600261 3.09076 0.640046 2.59097Z" fill="#E27410"/>
</svg>
